<svg id="icone_lista_preto" xmlns="http://www.w3.org/2000/svg" width="17" height="17" viewBox="0 0 17 17">
  <path id="Caminho_21" data-name="Caminho 21" d="M5.87,0H1.97A1.968,1.968,0,0,0,0,1.966v3.9a1.968,1.968,0,0,0,1.966,1.97h3.9A1.968,1.968,0,0,0,7.836,5.87V1.97A1.968,1.968,0,0,0,5.87,0Zm.638,5.87a.638.638,0,0,1-.638.638H1.97a.639.639,0,0,1-.638-.638V1.97a.639.639,0,0,1,.638-.638h3.9a.639.639,0,0,1,.638.638Z" fill="#8b8b8b"/>
  <path id="Caminho_22" data-name="Caminho 22" d="M15.008,0H11.156A1.994,1.994,0,0,0,9.164,1.992V5.844a1.994,1.994,0,0,0,1.992,1.992h3.852A1.994,1.994,0,0,0,17,5.844V1.992A1.994,1.994,0,0,0,15.008,0Zm.664,5.844a.665.665,0,0,1-.664.664H11.156a.665.665,0,0,1-.664-.664V1.992a.665.665,0,0,1,.664-.664h3.852a.665.665,0,0,1,.664.664Z" fill="#8b8b8b"/>
  <path id="Caminho_23" data-name="Caminho 23" d="M5.87,9.164H1.97A1.968,1.968,0,0,0,0,11.13v3.9A1.968,1.968,0,0,0,1.966,17h3.9a1.968,1.968,0,0,0,1.966-1.966v-3.9A1.968,1.968,0,0,0,5.87,9.164Zm.638,5.87a.638.638,0,0,1-.638.638H1.97a.639.639,0,0,1-.638-.638v-3.9A.639.639,0,0,1,1.97,10.5h3.9a.639.639,0,0,1,.638.638Z" fill="#8b8b8b"/>
  <path id="Caminho_24" data-name="Caminho 24" d="M15.008,9.164H11.156a1.994,1.994,0,0,0-1.992,1.992v3.852A1.994,1.994,0,0,0,11.156,17h3.852A1.994,1.994,0,0,0,17,15.008V11.156a1.994,1.994,0,0,0-1.992-1.992Zm.664,5.844a.665.665,0,0,1-.664.664H11.156a.665.665,0,0,1-.664-.664V11.156a.665.665,0,0,1,.664-.664h3.852a.665.665,0,0,1,.664.664Z" fill="#8b8b8b"/>
</svg>
