<svg xmlns="http://www.w3.org/2000/svg" xmlns:xlink="http://www.w3.org/1999/xlink" width="20" height="20" viewBox="0 0 20 20">
  <defs>
    <clipPath id="clip-path">
      <rect id="Retângulo_1" data-name="Retângulo 1" width="20" height="20" fill="#fff"/>
    </clipPath>
  </defs>
  <g id="Grupo_1" data-name="Grupo 1" clip-path="url(#clip-path)">
    <path id="Caminho_1" data-name="Caminho 1" d="M18.12,4.47l-.441-1.324a1.232,1.232,0,0,0-1.17-.843H12.8V1.1A1.1,1.1,0,0,0,11.7,0H8.3A1.1,1.1,0,0,0,7.209,1.1V2.3H3.5a1.232,1.232,0,0,0-1.17.843L1.887,4.47a.991.991,0,0,0,.94,1.3h.462L4.3,18.338A1.817,1.817,0,0,0,6.105,20h8a1.817,1.817,0,0,0,1.8-1.663L16.925,5.775h.256a.991.991,0,0,0,.94-1.3Zm-9.739-3.3h3.245V2.3H8.381Zm6.36,17.071a.639.639,0,0,1-.633.585h-8a.639.639,0,0,1-.633-.585L4.464,5.775H15.749ZM3.078,4.6,3.44,3.517A.061.061,0,0,1,3.5,3.476H16.509a.061.061,0,0,1,.058.042L16.929,4.6Z"/>
    <path id="Caminho_2" data-name="Caminho 2" d="M12.872,18.2H12.9a.586.586,0,0,0,.585-.555l.55-10.562a.586.586,0,0,0-1.17-.061l-.55,10.562A.586.586,0,0,0,12.872,18.2Z"/>
    <path id="Caminho_3" data-name="Caminho 3" d="M6.546,17.648a.586.586,0,0,0,.585.554h.033a.586.586,0,0,0,.553-.617L7.139,7.022a.586.586,0,0,0-1.17.064Z"/>
    <path id="Caminho_4" data-name="Caminho 4" d="M10.01,18.2a.586.586,0,0,0,.586-.586V7.054a.586.586,0,1,0-1.172,0V17.616A.586.586,0,0,0,10.01,18.2Z"/>
  </g>
</svg>
