<?xml version="1.0"?>
<svg xmlns="http://www.w3.org/2000/svg" height="512px" viewBox="0 -18 426.93514 426" width="512px" class=""><g><path d="m374 279.078125v-136.652344c-.03125-26.066406-21.160156-47.191406-47.230469-47.21875h-2.097656v-1.191406c-.027344-26.066406-21.152344-47.195313-47.21875-47.226563h-75.492187c-.859376 0-1.679688-.359374-2.253907-.996093l-27.386719-29.957031c-8.957031-9.78125-21.601562-15.355469-34.859374-15.367188h-90.238282c-26.070312.027344-47.191406 21.152344-47.222656 47.21875v263.570312c.03125 26.066407 21.152344 47.191407 47.222656 47.222657h247.78125l20.402344 20.398437c2.734375 2.734375 7.164062 2.734375 9.898438 0 2.734374-2.734375 2.734374-7.167968 0-9.898437l-47.859376-47.863281c-16.402343-16.402344-16.402343-42.996094 0-59.398438 16.402344-16.402344 42.996094-16.398438 59.398438.003906l67.882812 67.882813c10.9375 10.933593 10.9375 28.664062 0 39.597656-10.933593 10.9375-28.664062 10.9375-39.597656 0l-57.8125-57.8125c-5.5625-5.5625-5.5625-14.582031.003906-20.144531 5.5625-5.5625 14.585938-5.5625 20.148438.003906l37.785156 37.792969c2.734375 2.734375 7.167969 2.734375 9.902344 0s2.734375-7.167969 0-9.902344l-37.789062-37.792969c-11.042969-10.949218-28.863282-10.910156-39.859376.085938-10.996093 10.996094-11.035156 28.816406-.085937 39.859375l57.8125 57.8125c16.402344 16.402343 42.996094 16.402343 59.398437 0 16.402344-16.402344 16.402344-42.996094 0-59.402344zm-326.777344 65.402344c-18.339844-.023438-33.203125-14.882813-33.222656-33.222657v-263.570312c.019531-18.339844 14.882812-33.199219 33.222656-33.21875h90.238282c9.328124.007812 18.226562 3.929688 24.523437 10.8125l27.375 29.945312c3.234375 3.542969 7.804687 5.5625 12.601563 5.5625h75.492187c18.339844.023438 33.199219 14.886719 33.21875 33.226563v1.191406h-178.769531c-26.066406.03125-47.191406 21.152344-47.222656 47.21875v168.832031c-.023438 18.339844-14.886719 33.203126-33.230469 33.222657zm220.328125-92.652344c-21.839843 21.882813-21.839843 57.3125 0 79.199219l13.453125 13.457031h-196.027344c8.78125-8.828125 13.707032-20.773437 13.703126-33.222656v-168.835938c.019531-18.335937 14.878906-33.199219 33.21875-33.21875h194.867187c18.34375.019531 33.207031 14.878907 33.230469 33.21875v122.652344l-13.253906-13.253906c-21.882813-21.832031-57.308594-21.832031-79.191407 0zm0 0" data-original="#000000" class="active-path" data-old_color="#000000" fill="#E5E5E5"/></g> </svg>
