<svg width="21" height="23" viewBox="0 0 21 23" fill="none" xmlns="http://www.w3.org/2000/svg">
<path d="M8.11065 20.6931H3.50731C2.54034 20.6931 1.75365 19.9064 1.75365 18.9395V11.7495C1.75365 10.7825 2.54034 9.99583 3.50731 9.99583H16.1336C17.1006 9.99583 17.8873 10.7825 17.8873 11.7495V12.6701C17.8873 13.1544 18.2798 13.547 18.7641 13.547C19.2484 13.547 19.6409 13.1544 19.6409 12.6701V11.7495C19.6409 9.81555 18.0675 8.24217 16.1336 8.24217H15.0798V5.14987C15.0798 2.31022 12.7197 0 9.81884 0C6.91794 0 4.55788 2.31022 4.55788 5.14987V8.24217H3.50731C1.57338 8.24217 0 9.81555 0 11.7495V18.9395C0 20.8734 1.57338 22.4468 3.50731 22.4468H8.11065C8.59492 22.4468 8.98747 22.0542 8.98747 21.5699C8.98747 21.0857 8.59492 20.6931 8.11065 20.6931ZM6.31153 5.14987C6.31153 3.27718 7.88491 1.75365 9.81884 1.75365C11.7528 1.75365 13.3261 3.27718 13.3261 5.14987V8.24217H6.31153V5.14987V5.14987Z" fill="#686868"/>
<path d="M8.19836 16.0459C8.68262 16.0459 9.07519 15.6533 9.07519 15.1691C9.07519 14.6848 8.68262 14.2922 8.19836 14.2922C7.7141 14.2922 7.32153 14.6848 7.32153 15.1691C7.32153 15.6533 7.7141 16.0459 8.19836 16.0459Z" fill="#686868"/>
<path d="M20.8406 17.6901C20.8098 17.6462 20.704 17.4965 20.6383 17.4139C20.3447 17.0447 19.6573 16.1799 18.7008 15.4166C17.4745 14.4378 16.2125 13.9415 14.9499 13.9415C13.6873 13.9415 12.4253 14.4378 11.199 15.4165C10.2424 16.1799 9.55498 17.0446 9.26177 17.4135C9.19588 17.4963 9.09005 17.6461 9.05918 17.69C8.84668 17.9924 8.84664 18.3957 9.05909 18.6981C9.09 18.7421 9.19584 18.8919 9.26151 18.9744C9.55498 19.3436 10.2424 20.2083 11.1989 20.9717C12.4253 21.9505 13.6873 22.4467 14.9499 22.4467C16.2125 22.4467 17.4744 21.9505 18.7008 20.9718C19.6573 20.2084 20.3448 19.3437 20.6384 18.9743C20.7041 18.8917 20.8098 18.7421 20.8406 18.6982C21.0531 18.3958 21.0531 17.9925 20.8406 17.6901ZM14.9499 20.6931C13.6476 20.6931 12.2825 19.8529 10.8883 18.1941C12.2824 16.5354 13.6475 15.6952 14.9499 15.6952C16.2521 15.6952 17.6173 16.5356 19.0115 18.1942C17.6173 19.8529 16.2522 20.6931 14.9499 20.6931Z" fill="#686868"/>
<path d="M4.91027 16.0459C5.39453 16.0459 5.7871 15.6533 5.7871 15.1691C5.7871 14.6848 5.39453 14.2922 4.91027 14.2922C4.42602 14.2922 4.03345 14.6848 4.03345 15.1691C4.03345 15.6533 4.42602 16.0459 4.91027 16.0459Z" fill="#686868"/>
<path d="M14.9937 19.8601C15.9138 19.8601 16.6597 19.1143 16.6597 18.1942C16.6597 17.2741 15.9138 16.5282 14.9937 16.5282C14.0736 16.5282 13.3278 17.2741 13.3278 18.1942C13.3278 19.1143 14.0736 19.8601 14.9937 19.8601Z" fill="#686868"/>
</svg>
