<svg id="Capa_1" enable-background="new 0 0 512 512" height="512" viewBox="0 0 512 512" width="512" xmlns="http://www.w3.org/2000/svg"><g><circle cx="436" cy="256" r="10"/><circle cx="376" cy="256" r="10"/><path d="m10 389h116v113c0 5.523 4.477 10 10 10h75c5.523 0 10-4.477 10-10s-4.477-10-10-10h-65v-166h220v166h-65c-5.523 0-10 4.477-10 10s4.477 10 10 10h75c5.523 0 10-4.477 10-10v-113h116c5.523 0 10-4.477 10-10v-183c0-5.523-4.477-10-10-10h-56v-53c0-5.523-4.477-10-10-10h-50v-43h50c5.523 0 10-4.477 10-10v-60c0-5.523-4.477-10-10-10h-255c-30.327 0-55 24.673-55 55v68h-50c-5.523 0-10 4.477-10 10v53h-56c-5.523 0-10 4.477-10 10v183c0 5.523 4.477 10 10 10zm416-246v43h-40v-43zm0-121.996v38.996h-38.996c3.988-19.561 19.435-35.008 38.996-38.996zm-280 33.996c0-19.299 15.701-35 35-35.01h206.077c-12.993 12.726-21.077 30.438-21.077 50.01v116h-220zm-60 88h40v43h-40zm-66 63h472v163h-106v-53c0-5.523-4.477-10-10-10h-240c-5.523 0-10 4.477-10 10v53h-106z"/><path d="m196 389h120c5.523 0 10-4.477 10-10s-4.477-10-10-10h-120c-5.523 0-10 4.477-10 10s4.477 10 10 10z"/><path d="m196 449h120c5.523 0 10-4.477 10-10s-4.477-10-10-10h-120c-5.523 0-10 4.477-10 10s4.477 10 10 10z"/><circle cx="256" cy="502" r="10"/></g></svg>