<svg id="Grupo_2" data-name="Grupo 2" xmlns="http://www.w3.org/2000/svg" width="71.688" height="71.688" viewBox="0 0 71.688 71.688">
  <path id="Caminho_16" data-name="Caminho 16" d="M52.031,49.719h2.313v2.312H52.031Z"/>
  <path id="Caminho_17" data-name="Caminho 17" d="M47.406,49.719h2.313v2.312H47.406Z"/>
  <path id="Caminho_18" data-name="Caminho 18" d="M42.781,49.719h2.313v2.312H42.781Z"/>
  <path id="Caminho_19" data-name="Caminho 19" d="M42.781,45.094H54.344v2.312H42.781Z"/>
  <path id="Caminho_20" data-name="Caminho 20" d="M71.688,15.031A15.031,15.031,0,1,0,44.01,23.125h-23.2V53.188a4.577,4.577,0,0,0-2.312.643V27.75a3.473,3.473,0,0,0-3.469-3.469H3.469a3.469,3.469,0,0,0,0,6.938H16.188V57.813a4.616,4.616,0,0,0,1.973,3.779,5.784,5.784,0,1,0,8.4.846H50.9a5.727,5.727,0,0,0-1.185,3.469A5.781,5.781,0,1,0,55.5,60.125H20.813a2.313,2.313,0,0,1,0-4.625H58.076a5.813,5.813,0,0,0,5.415-3.751L65.833,45.5l-2.166-.813-2.343,6.248a3.486,3.486,0,0,1-3.249,2.251h-.264V30A15.042,15.042,0,0,0,71.688,15.031ZM3.469,28.906a1.156,1.156,0,1,1,0-2.312H15.031a1.157,1.157,0,0,1,1.156,1.156v1.156Zm21.969,37a3.469,3.469,0,1,1-3.469-3.469A3.473,3.473,0,0,1,25.438,65.906Zm33.531,0A3.469,3.469,0,1,1,55.5,62.438,3.473,3.473,0,0,1,58.969,65.906ZM52.611,22.034a8.125,8.125,0,0,1-4.048-7v-.806l1.775-2.663h2.85V18.5h6.938V11.563h2.85l1.775,2.663v.806a8.125,8.125,0,0,1-4.048,7l-.577.334v4.89a12.459,12.459,0,0,1-6.937,0v-4.89ZM56.656,2.313a12.71,12.71,0,0,1,5.781,24.034V23.674a10.442,10.442,0,0,0,4.625-8.643V13.525L64.212,9.25h-6.4v6.938H55.5V9.25H49.1l-2.85,4.275v1.507a10.442,10.442,0,0,0,4.625,8.643v2.672A12.71,12.71,0,0,1,56.656,2.313ZM34.688,25.438h9.25v4.625h-9.25ZM23.125,53.188V25.438h9.25v6.938H46.25V25.853A14.962,14.962,0,0,0,55.5,30V53.188Z"/>
</svg>
