<svg xmlns="http://www.w3.org/2000/svg" width="74.001" height="74" viewBox="0 0 74.001 74">
  <path id="Caminho_2" data-name="Caminho 2" d="M73.864,34.885a1.521,1.521,0,0,0-.1-.213,1.472,1.472,0,0,0-.277-.327c-.043-.04-.062-.1-.111-.13-.021-.015-.053-.015-.074-.031a.741.741,0,0,0-.074-.065L66.3,30.164a4.769,4.769,0,0,0-1.144-7.788l-11.3-5.649,1.31-3.277.888-.444a2.976,2.976,0,0,0,1.542.429,3.127,3.127,0,0,0,.851-.117l11.883-3.4A5.057,5.057,0,0,0,68.943,0H67.525a5.081,5.081,0,0,0-3.16,1.107L55.719,8.023a2.976,2.976,0,0,0-1.1,2.254l-1.354.675a1.535,1.535,0,0,0-.743.808l-1.434,3.583L46.78,13.191a8.263,8.263,0,0,0-9.854,2.06L23.794,31.012,1.147,37.053a1.618,1.618,0,0,0-.231.114c-.046.021-.1.012-.148.04-.028.015-.04.049-.065.065a1.534,1.534,0,0,0-.481.484C.21,37.777.2,37.8.191,37.82a1.5,1.5,0,0,0-.167.626c0,.034-.025.062-.025.1V60.125a1.541,1.541,0,0,0,.777,1.338L22.36,73.8a1.544,1.544,0,0,0,.765.2,1.483,1.483,0,0,0,.459-.071L72.918,58.512A1.539,1.539,0,0,0,74,57.042V35.458c0-.053-.031-.1-.034-.148a1.554,1.554,0,0,0-.1-.425Zm-7.57-31.37a1.973,1.973,0,0,1,1.23-.432h1.422a1.973,1.973,0,0,1,.542,3.87L58.423,10.116a.028.028,0,0,1,0-.015,1.291,1.291,0,0,0-.139-.176ZM39.3,17.223a5.02,5.02,0,0,1,3.86-1.807,5.177,5.177,0,0,1,2.254.527l4.529,2.263-.311.777-14.97,8.985a1.543,1.543,0,0,0,.8,2.864,1.512,1.512,0,0,0,.792-.222l15.417-9.25a1.534,1.534,0,0,0,.638-.749l.407-1.017,11.072,5.535a1.767,1.767,0,0,1-.361,3.29l-.749.188h-.012L21.17,38.982ZM21.583,69.8,3.083,59.23V41.2l18.5,10.57Zm1.724-20.6L5.565,39.066l14.812-3.95-4.6,5.522a1.542,1.542,0,0,0,1.184,2.528,1.456,1.456,0,0,0,.376-.049l5.18-1.295,4.443,2.667a1.541,1.541,0,0,0,1.588-2.642l-1.8-1.082,5.926-1.48,3.54,2.121A1.541,1.541,0,1,0,37.8,38.763l-.9-.537,5.929-1.483,2.627,1.579a1.573,1.573,0,0,0,.8.219,1.54,1.54,0,0,0,.8-2.855L52.984,34.2l1.724,1.033a1.519,1.519,0,0,0,2.146-2l5.991-1.5,5.778,3.3Zm47.61,6.7L24.667,70.362V52.007l46.25-14.451Z" transform="translate(0.001)" fill="#fff"/>
</svg>
