<svg xmlns="http://www.w3.org/2000/svg" width="71.679" height="71.824" viewBox="0 0 71.679 71.824">
  <path id="Caminho_15" data-name="Caminho 15" d="M69.531,60.281V57.969a8.114,8.114,0,0,0-3.614-6.721A17.243,17.243,0,0,0,51.334,36.362l-9.776-1.4L40.9,32.33a5.793,5.793,0,0,0,3.861-3.268h.49a4.63,4.63,0,0,0,4.625-4.625V18.656a2.315,2.315,0,0,0,2.313-2.312V14.031a2.315,2.315,0,0,0-2.312-2.312h-.2a13.867,13.867,0,0,0-27.348,0h-.2a2.315,2.315,0,0,0-2.312,2.313v2.313a2.315,2.315,0,0,0,2.313,2.313v5.781a4.63,4.63,0,0,0,4.625,4.625h.49A5.791,5.791,0,0,0,31.1,32.33l-.644,2.576L16.344,35.914V26.072l.99-.99a4.517,4.517,0,0,0-1.05-7.169,4.637,4.637,0,0,0-2.252-3.253v-.843a3.464,3.464,0,0,0,2.313-3.256V8.8A9.472,9.472,0,0,0,11.079.278L10.563.02l-.517.258A9.472,9.472,0,0,0,4.781,8.8v1.767a3.464,3.464,0,0,0,2.313,3.256v25.65a6.944,6.944,0,0,0,6.937,6.937h8.511L23.231,62.6H20.969V55.656H16.344V48.719H.156V71.844H51.031V64.023l2.952,5.9a3.449,3.449,0,0,0,3.1,1.917h8.7a3.45,3.45,0,0,0,3.1-1.917l2.952-5.9V60.281Zm-2.312-2.312v2.312H55.656V57.969a5.787,5.787,0,0,1,1.158-3.459,3.472,3.472,0,0,0,3.467,3.459h2.313a3.471,3.471,0,0,0,3.468-3.459,5.787,5.787,0,0,1,1.157,3.459Zm-8.094-4.625a2.313,2.313,0,1,1,4.625,0V54.5a1.158,1.158,0,0,1-1.156,1.156H60.281A1.158,1.158,0,0,1,59.125,54.5Zm3.967-4.306a4.5,4.5,0,0,0-4.6.771,10.186,10.186,0,0,0-8.438-6.6l-.437-.049.2-4.677,1.189.17A14.923,14.923,0,0,1,63.092,49.038ZM40.674,62.594l.385-9.25h5.8l-.4,9.25ZM9.406,57.969v4.625H2.469V57.969Zm4.625,6.937v4.625H9.406V64.906Zm2.313,0h4.625v4.625H16.344Zm6.937,0h4.625v4.625H23.281Zm6.938,0h4.625v4.625H30.219ZM24.955,48.719h5.793l.1,2.312h-5.79Zm13.61-16.188.8,3.194L36,39.93l-3.365-4.205.8-3.194Zm8.392,18.5h-5.8l.1-2.312h5.807ZM39.164,43.31,37.549,41.7l1.774-2.218Zm2.185,3.1.1-2.312H47.26l-.1,2.312Zm6.011-4.625H41.541l.186-4.456,5.792.827Zm-14.683-2.3L34.451,41.7l-1.615,1.61Zm-2.218,2.3h-5.8l-.176-4.13,5.786-.413Zm-5.7,2.313h5.8l.1,2.312h-5.8Zm8.209,2.355L36,43.416l3.033,3.033L38.36,62.594H33.64ZM37.157,64.91h4.625v4.625H37.156ZM45.25,26.75V22.125a2.313,2.313,0,1,1,0,4.625Zm2.313-6.3a4.577,4.577,0,0,0-2.312-.643V18.656h2.313Zm-.236-8.737H39.469V3a11.463,11.463,0,0,1,7.858,8.719ZM37.156,2.527v9.192H34.844V2.527c.38-.037.765-.058,1.156-.058S36.776,2.49,37.156,2.527ZM32.531,3v8.72H24.673A11.463,11.463,0,0,1,32.531,3ZM22.124,14.031H49.875v2.313H22.125Zm4.626,4.625v1.156a4.577,4.577,0,0,0-2.312.643v-1.8Zm-2.312,5.781a2.315,2.315,0,0,1,2.313-2.312V26.75a2.315,2.315,0,0,1-2.313-2.312Zm4.625,2.313V18.656H42.938V26.75a3.473,3.473,0,0,1-3.469,3.469H32.531a3.473,3.473,0,0,1-3.468-3.469ZM7.094,8.8a7.167,7.167,0,0,1,3.469-6.165A7.165,7.165,0,0,1,14.031,8.8v1.767a1.158,1.158,0,0,1-1.156,1.156H8.25a1.158,1.158,0,0,1-1.156-1.156Zm2.313,5.236H11.72v6.938a1.156,1.156,0,1,1-2.313,0ZM14.032,44.1a4.63,4.63,0,0,1-4.625-4.625V24.225a3.43,3.43,0,0,0,1.156.213,3.473,3.473,0,0,0,3.469-3.469v-1.6l1.094.547a2.192,2.192,0,0,1,1.219,1.971,2.226,2.226,0,0,1-.645,1.559l-1.667,1.667V36.678l-1.974,1.974,1.635,1.635L15.7,38.279l6.477-.462.267,6.277Zm11.121,9.25H30.94l.385,9.25h-5.78ZM17.5,57.969h1.156v4.625H11.719V57.969Zm-3.469-2.313H9.406V51.031h4.625ZM7.094,51.031v4.625H2.469V51.031ZM2.469,64.906H7.094v4.625H2.469Zm46.25,4.625H44.094V64.906h4.625Zm2.312-6.937H48.77l.745-17.119.282.031a7.873,7.873,0,0,1,6.79,5.993,8.118,8.118,0,0,0-3.242,6.47v2.312H51.031Zm18.5.883-2.708,5.415a1.149,1.149,0,0,1-1.034.639h-8.7a1.149,1.149,0,0,1-1.034-.639l-2.708-5.415v-.883H69.531Z" transform="translate(-0.156 -0.02)" fill="#fff"/>
</svg>
