<svg id="Grupo_1" data-name="Grupo 1" xmlns="http://www.w3.org/2000/svg" width="74" height="74" viewBox="0 0 74 74">
  <path id="Caminho_3" data-name="Caminho 3" d="M67.833,0h-51.8A6.174,6.174,0,0,0,9.867,6.167V59.2h-7.4A2.47,2.47,0,0,0,0,61.667v6.167A6.174,6.174,0,0,0,6.167,74h51.8a6.174,6.174,0,0,0,6.167-6.167V14.8h7.4A2.47,2.47,0,0,0,74,12.333V6.167A6.174,6.174,0,0,0,67.833,0ZM11.1,71.533H6.167a3.7,3.7,0,0,1-3.7-3.7V61.667H51.8v6.167a6.134,6.134,0,0,0,1.236,3.7Zm50.567-3.7a3.7,3.7,0,1,1-7.4,0V61.667A2.47,2.47,0,0,0,51.8,59.2H12.333V6.167a3.7,3.7,0,0,1,3.7-3.7h46.9a6.107,6.107,0,0,0-1.265,3.7Zm9.867-55.5h-7.4V6.167a3.7,3.7,0,0,1,7.4,0Z"/>
  <path id="Caminho_4" data-name="Caminho 4" d="M18.5,9.867H44.4a1.233,1.233,0,0,0,0-2.467H18.5a1.233,1.233,0,1,0,0,2.467Z"/>
  <path id="Caminho_5" data-name="Caminho 5" d="M50.567,9.867H55.5a1.233,1.233,0,1,0,0-2.467H50.567a1.233,1.233,0,0,0,0,2.467Z"/>
  <path id="Caminho_6" data-name="Caminho 6" d="M18.5,24.667H30.833a1.233,1.233,0,0,0,0-2.467H18.5a1.233,1.233,0,1,0,0,2.467Z"/>
  <path id="Caminho_7" data-name="Caminho 7" d="M38.233,22.2H35.766a1.233,1.233,0,0,0,0,2.467h2.467a1.233,1.233,0,0,0,0-2.467Z"/>
  <path id="Caminho_8" data-name="Caminho 8" d="M38.234,27.133H18.5a1.233,1.233,0,1,0,0,2.467H38.234a1.233,1.233,0,0,0,0-2.467Z"/>
  <path id="Caminho_9" data-name="Caminho 9" d="M55.5,27.133a1.233,1.233,0,0,0-1.233,1.233v2.467H44.4V20.967h7.4a1.233,1.233,0,1,0,0-2.467H44.4a2.47,2.47,0,0,0-2.467,2.467v9.867A2.47,2.47,0,0,0,44.4,33.3h9.867a2.47,2.47,0,0,0,2.467-2.467V28.367A1.234,1.234,0,0,0,55.5,27.133Z"/>
  <path id="Caminho_10" data-name="Caminho 10" d="M18.5,44.4H30.833a1.233,1.233,0,0,0,0-2.467H18.5a1.233,1.233,0,1,0,0,2.467Z"/>
  <path id="Caminho_11" data-name="Caminho 11" d="M38.233,41.933H35.766a1.233,1.233,0,0,0,0,2.467h2.467a1.233,1.233,0,0,0,0-2.467Z"/>
  <path id="Caminho_12" data-name="Caminho 12" d="M38.234,46.867H18.5a1.233,1.233,0,1,0,0,2.467H38.234a1.233,1.233,0,0,0,0-2.467Z"/>
  <path id="Caminho_13" data-name="Caminho 13" d="M54.267,38.233H44.4A2.47,2.47,0,0,0,41.933,40.7v9.867A2.47,2.47,0,0,0,44.4,53.033h9.867a2.47,2.47,0,0,0,2.467-2.467V40.7A2.47,2.47,0,0,0,54.267,38.233ZM44.4,50.567V40.7h9.867l0,9.867Z"/>
  <path id="Caminho_14" data-name="Caminho 14" d="M57.095,18.861l-6.528,6.528-1.595-1.595a1.233,1.233,0,0,0-1.744,1.744l2.467,2.467a1.233,1.233,0,0,0,1.744,0l7.4-7.4a1.233,1.233,0,0,0-1.744-1.744Z"/>
</svg>
